<svg width="50" height="50" viewBox="0 0 50 50" fill="none" xmlns="http://www.w3.org/2000/svg">
<path opacity="0.994" fill-rule="evenodd" clip-rule="evenodd" d="M40.1855 9.91211C40.8126 10.4901 41.3497 11.1412 41.7969 11.8652C41.7892 12.4681 41.5613 12.9889 41.1133 13.4277C40.9617 13.6492 40.8804 13.8934 40.8691 14.1602C41.1777 15.0207 41.487 15.8833 41.7969 16.748C41.9434 17.0247 42.155 17.2363 42.4316 17.3828C42.8471 17.5111 43.2702 17.5925 43.7012 17.627C43.8952 17.9185 44.1557 18.1138 44.4824 18.2129C44.7156 19.3741 44.7319 20.546 44.5312 21.7285C44.4539 21.9323 44.3399 22.1114 44.1895 22.2656C43.5839 22.4642 42.9654 22.6269 42.334 22.7539C42.2286 22.8473 42.1147 22.9286 41.9922 22.998C41.6713 23.8314 41.3132 24.6452 40.918 25.4395C40.7872 26.1875 41.015 26.806 41.6016 27.2949C41.927 27.7507 41.927 28.2063 41.6016 28.6621C41.2869 28.884 41.1079 29.1443 41.0645 29.4434C40.1182 29.9489 39.1416 30.4046 38.1348 30.8105C37.7792 30.4129 37.3397 30.1524 36.8164 30.0293C36.3617 30.1508 35.9223 30.3136 35.498 30.5176C35.2447 29.629 34.6914 28.9942 33.8379 28.6133C31.6936 28.4885 29.5451 28.4233 27.3926 28.418C25.9334 27.119 24.3058 26.0937 22.5098 25.3418C22.3488 24.7779 22.121 24.2408 21.8262 23.7305C21.2347 23.4743 20.6162 23.3116 19.9707 23.2422C19.4289 22.8909 19.1848 22.3863 19.2383 21.7285C19.1683 20.8461 19.2008 19.9672 19.3359 19.0918C19.4133 18.888 19.5272 18.7089 19.6777 18.5547C20.2823 18.3426 20.9008 18.1798 21.5332 18.0664C21.7773 17.9524 21.9563 17.7734 22.0703 17.5293C22.3548 16.6687 22.6641 15.8223 22.998 14.9902C22.9817 14.8601 22.9655 14.7298 22.9492 14.5996C22.5566 14.0764 22.2474 13.5067 22.0215 12.8906C22.0805 12.6383 22.1618 12.3941 22.2656 12.1582C22.9366 11.3244 23.7016 10.592 24.5605 9.96094C24.9187 9.76563 25.2767 9.76563 25.6348 9.96094C25.9873 10.1508 26.3128 10.3786 26.6113 10.6445C26.7712 10.7032 26.9339 10.7521 27.0996 10.791C27.8765 10.4724 28.6577 10.1631 29.4434 9.86328C29.6975 9.77705 29.9091 9.63053 30.0781 9.42383C30.2253 9.01384 30.3229 8.59066 30.3711 8.1543C30.5711 7.52386 31.0105 7.21461 31.6895 7.22656C32.4382 7.16146 33.1868 7.16146 33.9355 7.22656C34.4446 7.18013 34.8516 7.35916 35.1562 7.76367C35.3176 8.24279 35.4478 8.73107 35.5469 9.22852C35.6564 9.43592 35.8029 9.61495 35.9863 9.76563C36.793 10.039 37.5742 10.3645 38.3301 10.7422C38.4929 10.8073 38.6556 10.8073 38.8184 10.7422C39.2887 10.4822 39.7443 10.2056 40.1855 9.91211Z" fill="#7979F6"/>
<path fill-rule="evenodd" clip-rule="evenodd" d="M31.4941 8.25194C31.9761 8.16629 32.2365 8.3616 32.2754 8.83788C32.2459 9.79111 31.8879 10.5887 31.2012 11.2305C30.2605 11.6528 29.3165 12.0761 28.3691 12.5C28.1296 12.5721 27.8854 12.6209 27.6367 12.6465C26.9627 12.5373 26.8487 12.2281 27.2949 11.7187C27.5907 11.6661 27.8837 11.601 28.1738 11.5234C29.0231 11.1311 29.8695 10.7405 30.7129 10.3516C31.086 9.8831 31.265 9.34602 31.25 8.74023C31.3327 8.57487 31.4141 8.41211 31.4941 8.25194Z" fill="#9999F8"/>
<path opacity="0.999" fill-rule="evenodd" clip-rule="evenodd" d="M43.7012 17.627C43.2702 17.5925 42.8471 17.5111 42.4316 17.3828C42.155 17.2363 41.9434 17.0247 41.7969 16.7481C41.487 15.8833 41.1777 15.0207 40.8691 14.1602C40.8804 13.8934 40.9617 13.6492 41.1133 13.4277C41.5613 12.9889 41.7892 12.4681 41.7969 11.8652C41.3497 11.1412 40.8126 10.4901 40.1855 9.91211C40.5534 9.81583 40.9115 9.86465 41.2598 10.0586C42.1261 10.7621 42.8911 11.5597 43.5547 12.4512C43.6198 12.7441 43.6198 13.0371 43.5547 13.3301C43.2017 13.8449 42.8924 14.382 42.627 14.9414C43.0001 15.8336 43.3581 16.7288 43.7012 17.627Z" fill="#5F5EEF"/>
<path fill-rule="evenodd" clip-rule="evenodd" d="M36.8652 16.6504C35.0339 15.5607 33.1134 15.3816 31.1035 16.1133C28.4013 17.5954 27.3107 19.8578 27.832 22.9004C28.039 23.6371 28.3482 24.3207 28.7598 24.9512C26.8827 22.9367 26.5084 20.658 27.6367 18.1152C29.3467 15.3637 31.7718 14.4359 34.9121 15.332C35.6605 15.6435 36.3116 16.0829 36.8652 16.6504Z" fill="#E2E1FE"/>
<path fill-rule="evenodd" clip-rule="evenodd" d="M24.2676 15.4785C24.681 15.4045 24.9413 15.5673 25.0488 15.9668C24.6919 16.7281 24.3827 17.5094 24.1211 18.3105C23.5166 19.32 22.6215 19.8083 21.4355 19.7754C21.4193 20.4598 21.4355 21.1433 21.4844 21.8262C21.829 21.8878 22.1708 21.9691 22.5098 22.0703C22.7393 22.302 22.7556 22.5462 22.5586 22.8027C21.9203 22.9439 21.3018 22.8789 20.7031 22.6074C20.5905 22.2938 20.5254 21.9683 20.5078 21.6308C20.4427 20.8821 20.4427 20.1335 20.5078 19.3848C20.5845 19.2103 20.6983 19.0639 20.8496 18.9453C21.328 18.8117 21.8163 18.7141 22.3145 18.6523C22.6467 18.5156 22.9234 18.304 23.1445 18.0176C23.4415 17.1312 23.8158 16.2849 24.2676 15.4785Z" fill="#9A9AF8"/>
<path fill-rule="evenodd" clip-rule="evenodd" d="M36.8652 16.6504C38.6267 18.4238 39.0986 20.5072 38.2812 22.9004C36.7743 25.9567 34.3492 27.1123 31.0059 26.3672C30.1552 26.0404 29.4064 25.5685 28.7598 24.9512C28.3482 24.3207 28.039 23.6371 27.832 22.9004C27.3107 19.8578 28.4013 17.5954 31.1035 16.1133C33.1134 15.3816 35.0339 15.5607 36.8652 16.6504Z" fill="#FEFEFE"/>
<path fill-rule="evenodd" clip-rule="evenodd" d="M44.4824 18.2129C44.9501 18.225 45.4058 18.3064 45.8496 18.457C46.1041 18.6463 46.2831 18.8904 46.3867 19.1895C46.4519 20.2637 46.4519 21.3379 46.3867 22.4121C46.3363 22.6596 46.2224 22.8711 46.0449 23.0469C45.4534 23.303 44.835 23.4657 44.1895 23.5352C43.8742 23.6878 43.6626 23.9319 43.5547 24.2676C43.2739 25.0938 42.9647 25.9077 42.627 26.709C42.8714 27.2637 43.1644 27.7845 43.5059 28.2715C42.7375 28.7369 41.9237 29.1275 41.0645 29.4434C41.1079 29.1443 41.2869 28.884 41.6016 28.6621C41.9271 28.2063 41.9271 27.7507 41.6016 27.2949C41.015 26.806 40.7872 26.1875 40.918 25.4395C41.3132 24.6452 41.6713 23.8314 41.9922 22.998C42.1147 22.9286 42.2286 22.8473 42.334 22.7539C42.9654 22.6269 43.5839 22.4642 44.1895 22.2656C44.3399 22.1114 44.4539 21.9323 44.5313 21.7285C44.7319 20.546 44.7156 19.3741 44.4824 18.2129Z" fill="#5E5EEF"/>
<path opacity="0.994" fill-rule="evenodd" clip-rule="evenodd" d="M12.5488 22.4121C12.5635 27.5664 12.5473 32.7422 12.5 37.9394C12.279 38.5837 11.8395 38.9906 11.1816 39.1601C8.2816 39.2393 5.38446 39.2229 2.49023 39.1113C2.4427 39.0163 2.39388 38.9186 2.34375 38.8184C2.27864 33.6751 2.27864 28.5319 2.34375 23.3887C2.65948 22.5555 3.2617 22.116 4.15039 22.0703C6.62434 22.0052 9.09831 22.0052 11.5723 22.0703C11.9478 22.0716 12.2733 22.1855 12.5488 22.4121Z" fill="#5551FF"/>
<path fill-rule="evenodd" clip-rule="evenodd" d="M12.5488 22.4121C12.9026 22.5639 13.1468 22.8243 13.2812 23.1934C13.4106 23.672 13.4595 24.1603 13.4277 24.6582C13.4277 29.0202 13.4277 33.3821 13.4277 37.7441C13.5348 38.8488 13.0791 39.6139 12.0605 40.0391C9.26106 40.1042 6.46159 40.1042 3.66211 40.0391C3.13597 39.8912 2.74534 39.5819 2.49023 39.1113C5.38446 39.223 8.2816 39.2393 11.1816 39.1602C11.8396 38.9906 12.279 38.5837 12.5 37.9395C12.5473 32.7422 12.5635 27.5664 12.5488 22.4121Z" fill="#F05645"/>
<path opacity="0.999" fill-rule="evenodd" clip-rule="evenodd" d="M14.7949 24.6582C16.4229 24.6419 18.0505 24.6582 19.6777 24.707C20.6406 24.842 21.5847 25.0536 22.5098 25.3418C24.3058 26.0937 25.9334 27.1191 27.3926 28.418C29.5451 28.4234 31.6936 28.4885 33.8379 28.6133C34.6914 28.9943 35.2447 29.629 35.498 30.5176C35.5288 30.8956 35.4963 31.2537 35.4004 31.5918C35.1728 31.9721 34.8473 32.3464 34.4238 32.7149C34.1839 32.8674 33.9234 32.9651 33.6426 33.0078C31.3319 32.9739 29.0207 32.9739 26.709 33.0078C25.3372 33.068 23.97 33.1819 22.6074 33.3496C23.5126 33.4922 24.4241 33.5735 25.3418 33.5938C28.011 33.6589 30.6804 33.6589 33.3496 33.5938C34.2281 33.4316 34.8792 32.9596 35.3027 32.1777C36.2382 31.6937 37.1821 31.238 38.1348 30.8106C39.1416 30.4046 40.1182 29.9489 41.0645 29.4434C41.9237 29.1276 42.7375 28.7369 43.5059 28.2715C44.6277 27.6076 45.7345 27.6239 46.8262 28.3203C47.1562 28.6338 47.3841 29.0081 47.5098 29.4434C47.3153 29.8834 47.0224 30.2577 46.6309 30.5664C41.9386 33.9231 36.9906 36.8854 31.7871 39.4531C30.456 40.038 29.0888 40.5263 27.6855 40.918C26.2663 41.2799 24.8665 41.2148 23.4863 40.7227C20.9237 39.8574 18.4498 38.7832 16.0645 37.5C15.3938 36.9882 14.987 36.3208 14.8437 35.4981C14.7949 31.885 14.7786 28.2717 14.7949 24.6582Z" fill="#F6C8A9"/>
<path fill-rule="evenodd" clip-rule="evenodd" d="M13.4277 24.6582C13.8835 24.6582 14.3392 24.6582 14.7949 24.6582C14.7786 28.2717 14.7949 31.885 14.8438 35.498C14.987 36.3208 15.3938 36.9882 16.0645 37.5C18.4498 38.7832 20.9237 39.8574 23.4863 40.7227C24.8665 41.2147 26.2663 41.2799 27.6855 40.918C29.0888 40.5263 30.456 40.038 31.7871 39.4531C36.9906 36.8854 41.9386 33.923 46.6309 30.5664C47.0224 30.2577 47.3153 29.8834 47.5098 29.4434C47.736 30.2937 47.5896 31.0749 47.0703 31.7871C42.1093 35.4658 36.8195 38.6396 31.2012 41.3086C29.5244 42.0858 27.7666 42.5578 25.9277 42.7246C25.0954 42.6835 24.2815 42.537 23.4863 42.2852C22.0887 41.841 20.7215 41.3202 19.3848 40.7227C17.3667 39.7787 15.381 38.7858 13.4277 37.7441C13.4277 33.3821 13.4277 29.0202 13.4277 24.6582Z" fill="#F0B68E"/>
<path fill-rule="evenodd" clip-rule="evenodd" d="M15.4785 25.6348C16.8786 25.6185 18.2784 25.6348 19.6777 25.6836C20.4553 25.7722 21.204 25.9675 21.9238 26.2695C22.2331 26.7051 22.1191 26.9817 21.582 27.0996C20.9936 26.9037 20.3913 26.7572 19.7754 26.6602C18.4082 26.6276 17.041 26.595 15.6738 26.5625C15.2538 26.3279 15.1888 26.0187 15.4785 25.6348Z" fill="#F8D8C1"/>
<path fill-rule="evenodd" clip-rule="evenodd" d="M38.1348 30.8105C37.1821 31.238 36.2382 31.6937 35.3027 32.1777C35.3662 31.9888 35.3987 31.7935 35.4004 31.5918C35.4963 31.2537 35.5288 30.8956 35.498 30.5176C35.9223 30.3136 36.3617 30.1508 36.8164 30.0293C37.3397 30.1524 37.7792 30.4129 38.1348 30.8105Z" fill="#615FED"/>
<path fill-rule="evenodd" clip-rule="evenodd" d="M35.4004 31.5918C35.3987 31.7935 35.3662 31.9888 35.3027 32.1777C34.8792 32.9596 34.2281 33.4315 33.3496 33.5938C30.6804 33.6589 28.011 33.6589 25.3418 33.5938C24.4241 33.5735 23.5126 33.4922 22.6074 33.3496C23.97 33.1819 25.3372 33.068 26.709 33.0078C29.0207 32.9739 31.3319 32.9739 33.6426 33.0078C33.9234 32.965 34.1839 32.8674 34.4238 32.7148C34.8473 32.3464 35.1729 31.9721 35.4004 31.5918Z" fill="#F0B78F"/>
<path fill-rule="evenodd" clip-rule="evenodd" d="M10.4004 35.4004C10.6767 36.4266 10.3187 37.1265 9.32617 37.5C9.02786 37.5619 8.73489 37.5457 8.44727 37.4512C8.08061 36.4857 8.37357 35.7857 9.32617 35.3516C9.68776 35.295 10.0458 35.3113 10.4004 35.4004Z" fill="#E4E0FC"/>
<path fill-rule="evenodd" clip-rule="evenodd" d="M10.4004 35.4004C11.2914 35.9427 11.503 36.6914 11.0352 37.6465C10.083 38.5978 9.22041 38.5326 8.44727 37.4512C8.73489 37.5457 9.02786 37.5619 9.32617 37.5C10.3187 37.1265 10.6767 36.4266 10.4004 35.4004Z" fill="#D1CEF3"/>
</svg>
